.
..............................Site Info...........................

 -   http://www.scenetime.com  *_*   

Scenetime .Always on time . friendly online private torrent community ..

     We care to share . Join us on  http://www.scenetime.com 

    Be the first to get new release at  http://www.scenetime.com

        Seed back for speed


...................................NFO:.................................................[IMG]http://image.leechfrom.me/images/834Untitled_1gg_1_1_.gif[/IMG]

 
TITLE: 

Grave Encounters 2011 BRRiP AC3 XViD - INSPiRAL

IMDB: 
 
http://www.imdb.com/title/tt1703199/


SOURCES:

VIDEO -  720P NPW THANKS
AUDIO -  720P NPW THANKS
SUBS  - None Add

STATS:

Video
ID                                       : 0
Format                                   : MPEG-4 Visual
Format profile                           : Advanced Simple@L5
Format settings, BVOP                    : 2
Format settings, QPel                    : No
Format settings, GMC                     : No warppoints
Format settings, Matrix                  : Default (MPEG)
Muxing mode                              : Packed bitstream
Codec ID                                 : XVID
Codec ID/Hint                            : XviD
Duration                                 : 1h 33mn
Bit rate                                 : 1 630 Kbps
Width                                    : 720 pixels
Height                                   : 400 pixels
Display aspect ratio                     : 16:9
Frame rate                               : 24.000 fps
Color space                              : YUV
Chroma subsampling                       : 4:2:0
Bit depth                                : 8 bits
Scan type                                : Progressive
Compression mode                         : Lossy
Bits/(Pixel*Frame)                       : 0.236
Stream size                              : 1.07 GiB (72%)
Writing library                          : XviD 64

Audio
ID                                       : 1
Format                                   : AC-3
Format/Info                              : Audio Coding 3
Mode extension                           : CM (complete main)
Codec ID                                 : 2000
Duration                                 : 1h 33mn
Bit rate mode                            : Constant
Bit rate                                 : 640 Kbps
Channel(s)                               : 6 channels
Channel positions                        : Front: L C R, Side: L R, LFE
Sampling rate                            : 48.0 KHz
Bit depth                                : 16 bits
Compression mode                         : Lossy
Stream size                              : 428 MiB (28%)
Alignment                                : Aligned on interleaves
Interleave, duration                     : 42 ms (1.00 video frame)
Interleave, preload duration             : 512 ms



NOTES:

Simple rip of the 720p thats been released for a while....nothing fancy done,just done the right way :)
Also this is due out in the uk 20.4.12 ...so nice to get a brrip before its even out.


SCREENS:

[IMG]http://i.imgur.com/X4xf9.png[/IMG]
[IMG]http://i.imgur.com/xJ4ii.png[/IMG]
[IMG]http://i.imgur.com/mzs9Z.png[/IMG]
[IMG]http://i.imgur.com/5206n.png[/IMG]

GREETZ: 

Past,Present and Future

[IMG]http://image.leechfrom.me/images/834Untitled_1gg_1_1_.gif[/IMG]